<svg xmlns="http://www.w3.org/2000/svg" version="1.1" xmlns:xlink="http://www.w3.org/1999/xlink" width="1000" height="1000"><style>
    #light-icon {
      display: inline;
    }
    #dark-icon {
      display: none;
    }

    @media (prefers-color-scheme: dark) {
      #light-icon {
        display: none;
      }
      #dark-icon {
        display: inline;
      }
    }
  </style><g id="light-icon"><svg xmlns="http://www.w3.org/2000/svg" version="1.1" xmlns:xlink="http://www.w3.org/1999/xlink" width="1000" height="1000"><g><g transform="matrix(1.7064846416382253,0,0,1.7064846416382253,5.119453924914637,0)"><svg xmlns="http://www.w3.org/2000/svg" version="1.1" xmlns:xlink="http://www.w3.org/1999/xlink" width="580" height="586"><svg width="580" height="586" viewBox="0 0 580 586" fill="none" xmlns="http://www.w3.org/2000/svg">
<rect width="580" height="586" fill="white"></rect>
<circle cx="283" cy="279" r="225" fill="#FFD500"></circle>
<circle cx="226" cy="152" r="42" fill="black"></circle>
<circle cx="283" cy="247" r="42" fill="black"></circle>
<circle cx="349" cy="152" r="42" fill="black"></circle>
<path d="M124 313.429H130.857V320.286H124V313.429ZM130.857 313.429H137.714V320.286H130.857V313.429ZM137.714 313.429H144.571V320.286H137.714V313.429ZM144.571 313.429H151.429V320.286H144.571V313.429ZM151.429 313.429H158.286V320.286H151.429V313.429ZM158.286 313.429H165.143V320.286H158.286V313.429ZM158.286 320.286H165.143V327.143H158.286V320.286ZM151.429 320.286H158.286V327.143H151.429V320.286ZM144.571 320.286H151.429V327.143H144.571V320.286ZM137.714 320.286H144.571V327.143H137.714V320.286ZM130.857 320.286H137.714V327.143H130.857V320.286ZM124 320.286H130.857V327.143H124V320.286ZM137.714 327.143H144.571V334H137.714V327.143ZM137.714 334H144.571V340.857H137.714V334ZM137.714 340.857H144.571V347.714H137.714V340.857ZM137.714 347.714H144.571V354.571H137.714V347.714ZM137.714 354.571H144.571V361.429H137.714V354.571ZM137.714 361.429H144.571V368.286H137.714V361.429ZM144.571 354.571H151.429V361.429H144.571V354.571ZM144.571 347.714H151.429V354.571H144.571V347.714ZM144.571 340.857H151.429V347.714H144.571V340.857ZM144.571 334H151.429V340.857H144.571V334ZM144.571 327.143H151.429V334H144.571V327.143ZM144.571 361.429H151.429V368.286H144.571V361.429ZM144.571 368.286H151.429V375.143H144.571V368.286ZM144.571 375.143H151.429V382H144.571V375.143ZM137.714 375.143H144.571V382H137.714V375.143ZM137.714 368.286H144.571V375.143H137.714V368.286ZM172 375.143H178.857V382H172V375.143ZM172 368.286H178.857V375.143H172V368.286ZM172 361.429H178.857V368.286H172V361.429ZM172 354.571H178.857V361.429H172V354.571ZM172 347.714H178.857V354.571H172V347.714ZM172 340.857H178.857V347.714H172V340.857ZM178.857 340.857H185.714V347.714H178.857V340.857ZM178.857 334H185.714V340.857H178.857V334ZM178.857 327.143H185.714V334H178.857V327.143ZM178.857 320.286H185.714V327.143H178.857V320.286ZM172 320.286H178.857V327.143H172V320.286ZM172 313.429H178.857V320.286H172V313.429ZM172 327.143H178.857V334H172V327.143ZM172 334H178.857V340.857H172V334ZM178.857 313.429H185.714V320.286H178.857V313.429ZM178.857 347.714H185.714V354.571H178.857V347.714ZM178.857 354.571H185.714V361.429H178.857V354.571ZM178.857 361.429H185.714V368.286H178.857V361.429ZM178.857 368.286H185.714V375.143H178.857V368.286ZM178.857 375.143H185.714V382H178.857V375.143ZM185.714 327.143H192.571V334H185.714V327.143ZM185.714 334H192.571V340.857H185.714V334ZM192.571 334H199.429V340.857H192.571V334ZM192.571 340.857H199.429V347.714H192.571V340.857ZM199.429 340.857H206.286V347.714H199.429V340.857ZM199.429 347.714H206.286V354.571H199.429V347.714ZM206.286 340.857H213.143V347.714H206.286V340.857ZM206.286 334H213.143V340.857H206.286V334ZM213.143 334H220V340.857H213.143V334ZM213.143 327.143H220V334H213.143V327.143ZM220 313.429H226.857V320.286H220V313.429ZM220 320.286H226.857V327.143H220V320.286ZM220 327.143H226.857V334H220V327.143ZM220 334H226.857V340.857H220V334ZM220 340.857H226.857V347.714H220V340.857ZM220 347.714H226.857V354.571H220V347.714ZM220 354.571H226.857V361.429H220V354.571ZM220 361.429H226.857V368.286H220V361.429ZM220 368.286H226.857V375.143H220V368.286ZM220 375.143H226.857V382H220V375.143ZM226.857 375.143H233.714V382H226.857V375.143ZM226.857 368.286H233.714V375.143H226.857V368.286ZM226.857 361.429H233.714V368.286H226.857V361.429ZM226.857 354.571H233.714V361.429H226.857V354.571ZM226.857 347.714H233.714V354.571H226.857V347.714ZM226.857 340.857H233.714V347.714H226.857V340.857ZM226.857 334H233.714V340.857H226.857V334ZM226.857 327.143H233.714V334H226.857V327.143ZM226.857 320.286H233.714V327.143H226.857V320.286ZM226.857 313.429H233.714V320.286H226.857V313.429ZM185.714 320.286H192.571V327.143H185.714V320.286ZM192.571 327.143H199.429V334H192.571V327.143ZM199.429 334H206.286V340.857H199.429V334ZM206.286 327.143H213.143V334H206.286V327.143ZM213.143 320.286H220V327.143H213.143V320.286Z" fill="black"></path>
<path d="M340 313.429H346.857V320.286H340V313.429ZM346.857 313.429H353.714V320.286H346.857V313.429ZM353.714 313.429H360.571V320.286H353.714V313.429ZM360.571 313.429H367.429V320.286H360.571V313.429ZM367.429 313.429H374.286V320.286H367.429V313.429ZM374.286 313.429H381.143V320.286H374.286V313.429ZM374.286 320.286H381.143V327.143H374.286V320.286ZM367.429 320.286H374.286V327.143H367.429V320.286ZM360.571 320.286H367.429V327.143H360.571V320.286ZM353.714 320.286H360.571V327.143H353.714V320.286ZM346.857 320.286H353.714V327.143H346.857V320.286ZM340 320.286H346.857V327.143H340V320.286ZM353.714 327.143H360.571V334H353.714V327.143ZM353.714 334H360.571V340.857H353.714V334ZM353.714 340.857H360.571V347.714H353.714V340.857ZM353.714 347.714H360.571V354.571H353.714V347.714ZM353.714 354.571H360.571V361.429H353.714V354.571ZM353.714 361.429H360.571V368.286H353.714V361.429ZM360.571 354.571H367.429V361.429H360.571V354.571ZM360.571 347.714H367.429V354.571H360.571V347.714ZM360.571 340.857H367.429V347.714H360.571V340.857ZM360.571 334H367.429V340.857H360.571V334ZM360.571 327.143H367.429V334H360.571V327.143ZM360.571 361.429H367.429V368.286H360.571V361.429ZM360.571 368.286H367.429V375.143H360.571V368.286ZM360.571 375.143H367.429V382H360.571V375.143ZM353.714 375.143H360.571V382H353.714V375.143ZM353.714 368.286H360.571V375.143H353.714V368.286ZM388 375.143H394.857V382H388V375.143ZM388 368.286H394.857V375.143H388V368.286ZM388 361.429H394.857V368.286H388V361.429ZM388 354.571H394.857V361.429H388V354.571ZM388 347.714H394.857V354.571H388V347.714ZM388 340.857H394.857V347.714H388V340.857ZM394.857 340.857H401.714V347.714H394.857V340.857ZM394.857 334H401.714V340.857H394.857V334ZM394.857 327.143H401.714V334H394.857V327.143ZM394.857 320.286H401.714V327.143H394.857V320.286ZM388 320.286H394.857V327.143H388V320.286ZM388 313.429H394.857V320.286H388V313.429ZM388 327.143H394.857V334H388V327.143ZM388 334H394.857V340.857H388V334ZM394.857 313.429H401.714V320.286H394.857V313.429ZM394.857 347.714H401.714V354.571H394.857V347.714ZM394.857 354.571H401.714V361.429H394.857V354.571ZM394.857 361.429H401.714V368.286H394.857V361.429ZM394.857 368.286H401.714V375.143H394.857V368.286ZM394.857 375.143H401.714V382H394.857V375.143ZM401.714 327.143H408.571V334H401.714V327.143ZM401.714 334H408.571V340.857H401.714V334ZM408.571 334H415.429V340.857H408.571V334ZM408.571 340.857H415.429V347.714H408.571V340.857ZM415.429 340.857H422.286V347.714H415.429V340.857ZM415.429 347.714H422.286V354.571H415.429V347.714ZM422.286 340.857H429.143V347.714H422.286V340.857ZM422.286 334H429.143V340.857H422.286V334ZM429.143 334H436V340.857H429.143V334ZM429.143 327.143H436V334H429.143V327.143ZM436 313.429H442.857V320.286H436V313.429ZM436 320.286H442.857V327.143H436V320.286ZM436 327.143H442.857V334H436V327.143ZM436 334H442.857V340.857H436V334ZM436 340.857H442.857V347.714H436V340.857ZM436 347.714H442.857V354.571H436V347.714ZM436 354.571H442.857V361.429H436V354.571ZM436 361.429H442.857V368.286H436V361.429ZM436 368.286H442.857V375.143H436V368.286ZM436 375.143H442.857V382H436V375.143ZM442.857 375.143H449.714V382H442.857V375.143ZM442.857 368.286H449.714V375.143H442.857V368.286ZM442.857 361.429H449.714V368.286H442.857V361.429ZM442.857 354.571H449.714V361.429H442.857V354.571ZM442.857 347.714H449.714V354.571H442.857V347.714ZM442.857 340.857H449.714V347.714H442.857V340.857ZM442.857 334H449.714V340.857H442.857V334ZM442.857 327.143H449.714V334H442.857V327.143ZM442.857 320.286H449.714V327.143H442.857V320.286ZM442.857 313.429H449.714V320.286H442.857V313.429ZM401.714 320.286H408.571V327.143H401.714V320.286ZM408.571 327.143H415.429V334H408.571V327.143ZM415.429 334H422.286V340.857H415.429V334ZM422.286 327.143H429.143V334H422.286V327.143ZM429.143 320.286H436V327.143H429.143V320.286Z" fill="black"></path>
<path d="M232 313.429H238.857V320.286H232V313.429ZM238.857 313.429H245.714V320.286H238.857V313.429ZM245.714 313.429H252.571V320.286H245.714V313.429ZM252.571 313.429H259.429V320.286H252.571V313.429ZM259.429 313.429H266.286V320.286H259.429V313.429ZM266.286 313.429H273.143V320.286H266.286V313.429ZM266.286 320.286H273.143V327.143H266.286V320.286ZM259.429 320.286H266.286V327.143H259.429V320.286ZM252.571 320.286H259.429V327.143H252.571V320.286ZM245.714 320.286H252.571V327.143H245.714V320.286ZM238.857 320.286H245.714V327.143H238.857V320.286ZM232 320.286H238.857V327.143H232V320.286ZM245.714 327.143H252.571V334H245.714V327.143ZM245.714 334H252.571V340.857H245.714V334ZM245.714 340.857H252.571V347.714H245.714V340.857ZM245.714 347.714H252.571V354.571H245.714V347.714ZM245.714 354.571H252.571V361.429H245.714V354.571ZM245.714 361.429H252.571V368.286H245.714V361.429ZM252.571 354.571H259.429V361.429H252.571V354.571ZM252.571 347.714H259.429V354.571H252.571V347.714ZM252.571 340.857H259.429V347.714H252.571V340.857ZM252.571 334H259.429V340.857H252.571V334ZM252.571 327.143H259.429V334H252.571V327.143ZM252.571 361.429H259.429V368.286H252.571V361.429ZM252.571 368.286H259.429V375.143H252.571V368.286ZM252.571 375.143H259.429V382H252.571V375.143ZM245.714 375.143H252.571V382H245.714V375.143ZM245.714 368.286H252.571V375.143H245.714V368.286ZM280 375.143H286.857V382H280V375.143ZM280 368.286H286.857V375.143H280V368.286ZM280 361.429H286.857V368.286H280V361.429ZM280 354.571H286.857V361.429H280V354.571ZM280 347.714H286.857V354.571H280V347.714ZM280 340.857H286.857V347.714H280V340.857ZM286.857 340.857H293.714V347.714H286.857V340.857ZM286.857 334H293.714V340.857H286.857V334ZM286.857 327.143H293.714V334H286.857V327.143ZM286.857 320.286H293.714V327.143H286.857V320.286ZM280 320.286H286.857V327.143H280V320.286ZM280 313.429H286.857V320.286H280V313.429ZM280 327.143H286.857V334H280V327.143ZM280 334H286.857V340.857H280V334ZM286.857 313.429H293.714V320.286H286.857V313.429ZM286.857 347.714H293.714V354.571H286.857V347.714ZM286.857 354.571H293.714V361.429H286.857V354.571ZM286.857 361.429H293.714V368.286H286.857V361.429ZM286.857 368.286H293.714V375.143H286.857V368.286ZM286.857 375.143H293.714V382H286.857V375.143ZM293.714 327.143H300.571V334H293.714V327.143ZM293.714 334H300.571V340.857H293.714V334ZM300.571 334H307.429V340.857H300.571V334ZM300.571 340.857H307.429V347.714H300.571V340.857ZM307.429 340.857H314.286V347.714H307.429V340.857ZM307.429 347.714H314.286V354.571H307.429V347.714ZM314.286 340.857H321.143V347.714H314.286V340.857ZM314.286 334H321.143V340.857H314.286V334ZM321.143 334H328V340.857H321.143V334ZM321.143 327.143H328V334H321.143V327.143ZM328 313.429H334.857V320.286H328V313.429ZM328 320.286H334.857V327.143H328V320.286ZM328 327.143H334.857V334H328V327.143ZM328 334H334.857V340.857H328V334ZM328 340.857H334.857V347.714H328V340.857ZM328 347.714H334.857V354.571H328V347.714ZM328 354.571H334.857V361.429H328V354.571ZM328 361.429H334.857V368.286H328V361.429ZM328 368.286H334.857V375.143H328V368.286ZM328 375.143H334.857V382H328V375.143ZM334.857 375.143H341.714V382H334.857V375.143ZM334.857 368.286H341.714V375.143H334.857V368.286ZM334.857 361.429H341.714V368.286H334.857V361.429ZM334.857 354.571H341.714V361.429H334.857V354.571ZM334.857 347.714H341.714V354.571H334.857V347.714ZM334.857 340.857H341.714V347.714H334.857V340.857ZM334.857 334H341.714V340.857H334.857V334ZM334.857 327.143H341.714V334H334.857V327.143ZM334.857 320.286H341.714V327.143H334.857V320.286ZM334.857 313.429H341.714V320.286H334.857V313.429ZM293.714 320.286H300.571V327.143H293.714V320.286ZM300.571 327.143H307.429V334H300.571V327.143ZM307.429 334H314.286V340.857H307.429V334ZM314.286 327.143H321.143V334H314.286V327.143ZM321.143 320.286H328V327.143H321.143V320.286Z" fill="black"></path>
</svg></svg></g></g></svg></g><g id="dark-icon"><svg xmlns="http://www.w3.org/2000/svg" version="1.1" xmlns:xlink="http://www.w3.org/1999/xlink" width="1000" height="1000"><g clip-path="url(#SvgjsClipPath1006)"><rect width="1000" height="1000" fill="#ffffff"></rect><g transform="matrix(1.1945392491467577,0,0,1.1945392491467577,153.58361774744026,150)"><svg xmlns="http://www.w3.org/2000/svg" version="1.1" xmlns:xlink="http://www.w3.org/1999/xlink" width="580" height="586"><svg width="580" height="586" viewBox="0 0 580 586" fill="none" xmlns="http://www.w3.org/2000/svg">
<rect width="580" height="586" fill="white"></rect>
<circle cx="283" cy="279" r="225" fill="#FFD500"></circle>
<circle cx="226" cy="152" r="42" fill="black"></circle>
<circle cx="283" cy="247" r="42" fill="black"></circle>
<circle cx="349" cy="152" r="42" fill="black"></circle>
<path d="M124 313.429H130.857V320.286H124V313.429ZM130.857 313.429H137.714V320.286H130.857V313.429ZM137.714 313.429H144.571V320.286H137.714V313.429ZM144.571 313.429H151.429V320.286H144.571V313.429ZM151.429 313.429H158.286V320.286H151.429V313.429ZM158.286 313.429H165.143V320.286H158.286V313.429ZM158.286 320.286H165.143V327.143H158.286V320.286ZM151.429 320.286H158.286V327.143H151.429V320.286ZM144.571 320.286H151.429V327.143H144.571V320.286ZM137.714 320.286H144.571V327.143H137.714V320.286ZM130.857 320.286H137.714V327.143H130.857V320.286ZM124 320.286H130.857V327.143H124V320.286ZM137.714 327.143H144.571V334H137.714V327.143ZM137.714 334H144.571V340.857H137.714V334ZM137.714 340.857H144.571V347.714H137.714V340.857ZM137.714 347.714H144.571V354.571H137.714V347.714ZM137.714 354.571H144.571V361.429H137.714V354.571ZM137.714 361.429H144.571V368.286H137.714V361.429ZM144.571 354.571H151.429V361.429H144.571V354.571ZM144.571 347.714H151.429V354.571H144.571V347.714ZM144.571 340.857H151.429V347.714H144.571V340.857ZM144.571 334H151.429V340.857H144.571V334ZM144.571 327.143H151.429V334H144.571V327.143ZM144.571 361.429H151.429V368.286H144.571V361.429ZM144.571 368.286H151.429V375.143H144.571V368.286ZM144.571 375.143H151.429V382H144.571V375.143ZM137.714 375.143H144.571V382H137.714V375.143ZM137.714 368.286H144.571V375.143H137.714V368.286ZM172 375.143H178.857V382H172V375.143ZM172 368.286H178.857V375.143H172V368.286ZM172 361.429H178.857V368.286H172V361.429ZM172 354.571H178.857V361.429H172V354.571ZM172 347.714H178.857V354.571H172V347.714ZM172 340.857H178.857V347.714H172V340.857ZM178.857 340.857H185.714V347.714H178.857V340.857ZM178.857 334H185.714V340.857H178.857V334ZM178.857 327.143H185.714V334H178.857V327.143ZM178.857 320.286H185.714V327.143H178.857V320.286ZM172 320.286H178.857V327.143H172V320.286ZM172 313.429H178.857V320.286H172V313.429ZM172 327.143H178.857V334H172V327.143ZM172 334H178.857V340.857H172V334ZM178.857 313.429H185.714V320.286H178.857V313.429ZM178.857 347.714H185.714V354.571H178.857V347.714ZM178.857 354.571H185.714V361.429H178.857V354.571ZM178.857 361.429H185.714V368.286H178.857V361.429ZM178.857 368.286H185.714V375.143H178.857V368.286ZM178.857 375.143H185.714V382H178.857V375.143ZM185.714 327.143H192.571V334H185.714V327.143ZM185.714 334H192.571V340.857H185.714V334ZM192.571 334H199.429V340.857H192.571V334ZM192.571 340.857H199.429V347.714H192.571V340.857ZM199.429 340.857H206.286V347.714H199.429V340.857ZM199.429 347.714H206.286V354.571H199.429V347.714ZM206.286 340.857H213.143V347.714H206.286V340.857ZM206.286 334H213.143V340.857H206.286V334ZM213.143 334H220V340.857H213.143V334ZM213.143 327.143H220V334H213.143V327.143ZM220 313.429H226.857V320.286H220V313.429ZM220 320.286H226.857V327.143H220V320.286ZM220 327.143H226.857V334H220V327.143ZM220 334H226.857V340.857H220V334ZM220 340.857H226.857V347.714H220V340.857ZM220 347.714H226.857V354.571H220V347.714ZM220 354.571H226.857V361.429H220V354.571ZM220 361.429H226.857V368.286H220V361.429ZM220 368.286H226.857V375.143H220V368.286ZM220 375.143H226.857V382H220V375.143ZM226.857 375.143H233.714V382H226.857V375.143ZM226.857 368.286H233.714V375.143H226.857V368.286ZM226.857 361.429H233.714V368.286H226.857V361.429ZM226.857 354.571H233.714V361.429H226.857V354.571ZM226.857 347.714H233.714V354.571H226.857V347.714ZM226.857 340.857H233.714V347.714H226.857V340.857ZM226.857 334H233.714V340.857H226.857V334ZM226.857 327.143H233.714V334H226.857V327.143ZM226.857 320.286H233.714V327.143H226.857V320.286ZM226.857 313.429H233.714V320.286H226.857V313.429ZM185.714 320.286H192.571V327.143H185.714V320.286ZM192.571 327.143H199.429V334H192.571V327.143ZM199.429 334H206.286V340.857H199.429V334ZM206.286 327.143H213.143V334H206.286V327.143ZM213.143 320.286H220V327.143H213.143V320.286Z" fill="black"></path>
<path d="M340 313.429H346.857V320.286H340V313.429ZM346.857 313.429H353.714V320.286H346.857V313.429ZM353.714 313.429H360.571V320.286H353.714V313.429ZM360.571 313.429H367.429V320.286H360.571V313.429ZM367.429 313.429H374.286V320.286H367.429V313.429ZM374.286 313.429H381.143V320.286H374.286V313.429ZM374.286 320.286H381.143V327.143H374.286V320.286ZM367.429 320.286H374.286V327.143H367.429V320.286ZM360.571 320.286H367.429V327.143H360.571V320.286ZM353.714 320.286H360.571V327.143H353.714V320.286ZM346.857 320.286H353.714V327.143H346.857V320.286ZM340 320.286H346.857V327.143H340V320.286ZM353.714 327.143H360.571V334H353.714V327.143ZM353.714 334H360.571V340.857H353.714V334ZM353.714 340.857H360.571V347.714H353.714V340.857ZM353.714 347.714H360.571V354.571H353.714V347.714ZM353.714 354.571H360.571V361.429H353.714V354.571ZM353.714 361.429H360.571V368.286H353.714V361.429ZM360.571 354.571H367.429V361.429H360.571V354.571ZM360.571 347.714H367.429V354.571H360.571V347.714ZM360.571 340.857H367.429V347.714H360.571V340.857ZM360.571 334H367.429V340.857H360.571V334ZM360.571 327.143H367.429V334H360.571V327.143ZM360.571 361.429H367.429V368.286H360.571V361.429ZM360.571 368.286H367.429V375.143H360.571V368.286ZM360.571 375.143H367.429V382H360.571V375.143ZM353.714 375.143H360.571V382H353.714V375.143ZM353.714 368.286H360.571V375.143H353.714V368.286ZM388 375.143H394.857V382H388V375.143ZM388 368.286H394.857V375.143H388V368.286ZM388 361.429H394.857V368.286H388V361.429ZM388 354.571H394.857V361.429H388V354.571ZM388 347.714H394.857V354.571H388V347.714ZM388 340.857H394.857V347.714H388V340.857ZM394.857 340.857H401.714V347.714H394.857V340.857ZM394.857 334H401.714V340.857H394.857V334ZM394.857 327.143H401.714V334H394.857V327.143ZM394.857 320.286H401.714V327.143H394.857V320.286ZM388 320.286H394.857V327.143H388V320.286ZM388 313.429H394.857V320.286H388V313.429ZM388 327.143H394.857V334H388V327.143ZM388 334H394.857V340.857H388V334ZM394.857 313.429H401.714V320.286H394.857V313.429ZM394.857 347.714H401.714V354.571H394.857V347.714ZM394.857 354.571H401.714V361.429H394.857V354.571ZM394.857 361.429H401.714V368.286H394.857V361.429ZM394.857 368.286H401.714V375.143H394.857V368.286ZM394.857 375.143H401.714V382H394.857V375.143ZM401.714 327.143H408.571V334H401.714V327.143ZM401.714 334H408.571V340.857H401.714V334ZM408.571 334H415.429V340.857H408.571V334ZM408.571 340.857H415.429V347.714H408.571V340.857ZM415.429 340.857H422.286V347.714H415.429V340.857ZM415.429 347.714H422.286V354.571H415.429V347.714ZM422.286 340.857H429.143V347.714H422.286V340.857ZM422.286 334H429.143V340.857H422.286V334ZM429.143 334H436V340.857H429.143V334ZM429.143 327.143H436V334H429.143V327.143ZM436 313.429H442.857V320.286H436V313.429ZM436 320.286H442.857V327.143H436V320.286ZM436 327.143H442.857V334H436V327.143ZM436 334H442.857V340.857H436V334ZM436 340.857H442.857V347.714H436V340.857ZM436 347.714H442.857V354.571H436V347.714ZM436 354.571H442.857V361.429H436V354.571ZM436 361.429H442.857V368.286H436V361.429ZM436 368.286H442.857V375.143H436V368.286ZM436 375.143H442.857V382H436V375.143ZM442.857 375.143H449.714V382H442.857V375.143ZM442.857 368.286H449.714V375.143H442.857V368.286ZM442.857 361.429H449.714V368.286H442.857V361.429ZM442.857 354.571H449.714V361.429H442.857V354.571ZM442.857 347.714H449.714V354.571H442.857V347.714ZM442.857 340.857H449.714V347.714H442.857V340.857ZM442.857 334H449.714V340.857H442.857V334ZM442.857 327.143H449.714V334H442.857V327.143ZM442.857 320.286H449.714V327.143H442.857V320.286ZM442.857 313.429H449.714V320.286H442.857V313.429ZM401.714 320.286H408.571V327.143H401.714V320.286ZM408.571 327.143H415.429V334H408.571V327.143ZM415.429 334H422.286V340.857H415.429V334ZM422.286 327.143H429.143V334H422.286V327.143ZM429.143 320.286H436V327.143H429.143V320.286Z" fill="black"></path>
<path d="M232 313.429H238.857V320.286H232V313.429ZM238.857 313.429H245.714V320.286H238.857V313.429ZM245.714 313.429H252.571V320.286H245.714V313.429ZM252.571 313.429H259.429V320.286H252.571V313.429ZM259.429 313.429H266.286V320.286H259.429V313.429ZM266.286 313.429H273.143V320.286H266.286V313.429ZM266.286 320.286H273.143V327.143H266.286V320.286ZM259.429 320.286H266.286V327.143H259.429V320.286ZM252.571 320.286H259.429V327.143H252.571V320.286ZM245.714 320.286H252.571V327.143H245.714V320.286ZM238.857 320.286H245.714V327.143H238.857V320.286ZM232 320.286H238.857V327.143H232V320.286ZM245.714 327.143H252.571V334H245.714V327.143ZM245.714 334H252.571V340.857H245.714V334ZM245.714 340.857H252.571V347.714H245.714V340.857ZM245.714 347.714H252.571V354.571H245.714V347.714ZM245.714 354.571H252.571V361.429H245.714V354.571ZM245.714 361.429H252.571V368.286H245.714V361.429ZM252.571 354.571H259.429V361.429H252.571V354.571ZM252.571 347.714H259.429V354.571H252.571V347.714ZM252.571 340.857H259.429V347.714H252.571V340.857ZM252.571 334H259.429V340.857H252.571V334ZM252.571 327.143H259.429V334H252.571V327.143ZM252.571 361.429H259.429V368.286H252.571V361.429ZM252.571 368.286H259.429V375.143H252.571V368.286ZM252.571 375.143H259.429V382H252.571V375.143ZM245.714 375.143H252.571V382H245.714V375.143ZM245.714 368.286H252.571V375.143H245.714V368.286ZM280 375.143H286.857V382H280V375.143ZM280 368.286H286.857V375.143H280V368.286ZM280 361.429H286.857V368.286H280V361.429ZM280 354.571H286.857V361.429H280V354.571ZM280 347.714H286.857V354.571H280V347.714ZM280 340.857H286.857V347.714H280V340.857ZM286.857 340.857H293.714V347.714H286.857V340.857ZM286.857 334H293.714V340.857H286.857V334ZM286.857 327.143H293.714V334H286.857V327.143ZM286.857 320.286H293.714V327.143H286.857V320.286ZM280 320.286H286.857V327.143H280V320.286ZM280 313.429H286.857V320.286H280V313.429ZM280 327.143H286.857V334H280V327.143ZM280 334H286.857V340.857H280V334ZM286.857 313.429H293.714V320.286H286.857V313.429ZM286.857 347.714H293.714V354.571H286.857V347.714ZM286.857 354.571H293.714V361.429H286.857V354.571ZM286.857 361.429H293.714V368.286H286.857V361.429ZM286.857 368.286H293.714V375.143H286.857V368.286ZM286.857 375.143H293.714V382H286.857V375.143ZM293.714 327.143H300.571V334H293.714V327.143ZM293.714 334H300.571V340.857H293.714V334ZM300.571 334H307.429V340.857H300.571V334ZM300.571 340.857H307.429V347.714H300.571V340.857ZM307.429 340.857H314.286V347.714H307.429V340.857ZM307.429 347.714H314.286V354.571H307.429V347.714ZM314.286 340.857H321.143V347.714H314.286V340.857ZM314.286 334H321.143V340.857H314.286V334ZM321.143 334H328V340.857H321.143V334ZM321.143 327.143H328V334H321.143V327.143ZM328 313.429H334.857V320.286H328V313.429ZM328 320.286H334.857V327.143H328V320.286ZM328 327.143H334.857V334H328V327.143ZM328 334H334.857V340.857H328V334ZM328 340.857H334.857V347.714H328V340.857ZM328 347.714H334.857V354.571H328V347.714ZM328 354.571H334.857V361.429H328V354.571ZM328 361.429H334.857V368.286H328V361.429ZM328 368.286H334.857V375.143H328V368.286ZM328 375.143H334.857V382H328V375.143ZM334.857 375.143H341.714V382H334.857V375.143ZM334.857 368.286H341.714V375.143H334.857V368.286ZM334.857 361.429H341.714V368.286H334.857V361.429ZM334.857 354.571H341.714V361.429H334.857V354.571ZM334.857 347.714H341.714V354.571H334.857V347.714ZM334.857 340.857H341.714V347.714H334.857V340.857ZM334.857 334H341.714V340.857H334.857V334ZM334.857 327.143H341.714V334H334.857V327.143ZM334.857 320.286H341.714V327.143H334.857V320.286ZM334.857 313.429H341.714V320.286H334.857V313.429ZM293.714 320.286H300.571V327.143H293.714V320.286ZM300.571 327.143H307.429V334H300.571V327.143ZM307.429 334H314.286V340.857H307.429V334ZM314.286 327.143H321.143V334H314.286V327.143ZM321.143 320.286H328V327.143H321.143V320.286Z" fill="black"></path>
</svg></svg></g></g><defs><clipPath id="SvgjsClipPath1006"><rect width="1000" height="1000" x="0" y="0" rx="350" ry="350"></rect></clipPath></defs></svg></g></svg>